<svg width="299" height="645" viewBox="0 0 299 645" fill="none" xmlns="http://www.w3.org/2000/svg">
<g style="mix-blend-mode:multiply" opacity="0.17">
<path d="M189.406 644.943C223.682 644.943 251.469 639.514 251.469 632.818C251.469 626.122 223.682 620.694 189.406 620.694C155.129 620.694 127.342 626.122 127.342 632.818C127.342 639.514 155.129 644.943 189.406 644.943Z" fill="#9E1F63"/>
</g>
<path d="M284.323 382.92C267.373 427.183 240.867 453.701 187.953 453.701C135.039 453.701 91.0379 413.978 91.0379 366.586C91.0379 344.544 94.3032 319.219 116.658 310.54C117.65 310.153 120.132 308.703 119.035 307.442C104.646 290.905 121.085 263.681 124.25 268.581C136.228 287.095 152.612 281.318 166.832 281.546C200.205 282.062 241.104 276.423 267.889 300.77C290.532 321.351 295.019 354.164 284.654 382.046C284.546 382.334 284.436 382.627 284.323 382.92Z" fill="#3C1518"/>
<path d="M138.281 283.015C148.261 285.616 158.988 285.757 169.408 285.332C186.025 284.653 206.08 284.53 222.74 286.497C239.714 288.499 248.367 291.539 261.608 301.327C274.138 310.58 284.196 328.393 289.219 342.431C287.115 326.765 280.201 311.954 267.889 300.763C241.104 276.406 200.202 282.055 166.83 281.539C152.609 281.318 136.225 287.095 124.247 268.574C123.837 267.943 123.189 267.878 122.413 268.243C125.832 274.564 131.621 279.505 138.281 283.015Z" fill="#723C18"/>
<path d="M177.286 626.975C174.261 631.272 167.396 630.314 167.005 627.796C163.754 609.167 154.542 580.57 152.751 559.183L189.879 556.659C189.79 579.288 183.082 610.269 177.286 626.975Z" fill="#FFBC72"/>
<path d="M203.705 626.967C206.731 631.265 213.595 630.307 213.986 627.788C217.237 609.16 225.578 577.686 227.369 556.299L188.438 557.74C188.527 580.361 197.91 610.262 203.705 626.967Z" fill="#FFBC72"/>
<path d="M178.16 624.346C183.735 607.174 189.795 578.159 189.879 556.659L152.751 559.183C154.432 579.29 162.676 605.76 166.359 624.346H178.16Z" fill="#FB7B44"/>
<path d="M214.608 624.346C218.209 605.465 225.676 576.419 227.362 556.299L188.431 557.74C188.515 579.24 196.983 607.27 202.798 624.346H214.608Z" fill="#FB7B44"/>
<path d="M180.462 622.785C185.792 605.393 189.799 577.1 189.879 556.659L152.751 559.183C154.309 577.787 160.194 603.825 164.177 622.033C168.647 622.958 175.925 622.55 180.462 622.785Z" fill="#3C1518"/>
<path d="M216.541 622.785C220.277 603.914 225.755 575.561 227.369 556.299L188.438 557.74C188.52 578.246 194.748 605.069 200.505 622.286C204.879 622.278 212.166 622.804 216.541 622.785Z" fill="#3C1518"/>
<path d="M245.174 567.97C245.071 568.673 244.991 569.47 245.445 570.02C246.053 570.76 247.27 570.582 248.05 570.02C248.831 569.458 249.378 568.632 250.153 568.071C251.332 567.213 252.922 567.086 254.343 567.401C255.764 567.715 257.068 568.428 258.338 569.144C259.27 569.667 260.499 570.181 261.322 569.504C261.803 569.101 261.956 568.38 261.831 567.756C261.671 567.137 261.4 566.552 261.032 566.03C261.666 566.544 261.687 567.71 262.473 567.934C263.025 568.092 263.594 567.598 263.733 567.041C263.872 566.484 263.707 565.898 263.541 565.346C263.709 565.797 264.47 565.662 264.665 565.221C264.859 564.779 264.665 564.26 264.47 563.833C263.254 561.238 261.221 559.113 258.681 557.785C256.125 556.473 253.17 556.165 250.398 556.921C248.942 557.3 247.624 558.088 246.6 559.192C246.097 559.737 245.723 560.39 245.508 561.1C245.293 561.81 245.241 562.56 245.356 563.293C245.628 564.933 245.416 566.316 245.174 567.97Z" fill="#FFBC72"/>
<path d="M245.407 566.059C250.574 563.586 256.038 561.737 261.416 559.756C260.598 558.98 259.678 558.319 258.681 557.792C256.125 556.48 253.17 556.172 250.398 556.928C248.942 557.308 247.624 558.096 246.6 559.199C246.097 559.745 245.723 560.397 245.508 561.107C245.293 561.817 245.241 562.567 245.356 563.3C245.495 564.213 245.512 565.141 245.407 566.059V566.059Z" fill="#FB7B44"/>
<path d="M155.411 542.919C157.745 543.423 156.407 545.339 158.772 545.685C164.006 546.448 169.202 547.43 174.438 548.172C184.352 549.574 193.972 550.736 203.895 548.827C212.646 547.147 217.018 543.785 225.078 539.704C222.226 524.847 221.323 510.069 215.41 493.126C215.302 492.821 214.072 493.013 213.969 492.706C213.844 492.358 214.637 491.177 214.507 490.826L173.584 493.172L164.772 491.465C159.409 507.885 161.216 522.641 158.29 541.735C162.88 538.367 155.337 542.907 155.411 542.919Z" fill="#E5E6E7"/>
<path d="M198.395 537.039L190.719 545.937L182.246 537.702L187.149 511.678L192.743 511.798L198.395 537.039Z" fill="#00B4D8"/>
<path d="M288.907 424.119C289.155 411.549 280.298 401.18 269.125 400.959C257.951 400.739 248.693 410.751 248.445 423.321C248.197 435.892 257.053 446.261 268.227 446.481C279.4 446.702 288.659 436.69 288.907 424.119Z" fill="#FFD19E"/>
<path d="M268.441 436.213C263.044 436.107 258.597 430.297 258.729 423.529C258.862 416.761 263.531 411.13 268.936 411.238C274.34 411.346 278.779 417.152 278.647 423.92C278.515 430.688 273.841 436.321 268.441 436.213Z" fill="#FF9C72"/>
<path d="M132.843 421.037C133.091 408.466 124.235 398.097 113.061 397.877C101.888 397.656 92.6295 407.668 92.3816 420.239C92.1336 432.809 100.99 443.178 112.164 443.399C123.337 443.619 132.595 433.607 132.843 421.037Z" fill="#FFD19E"/>
<path d="M112.372 433.13C106.975 433.022 102.529 427.214 102.661 420.444C102.793 413.673 107.463 408.048 112.867 408.153C118.271 408.259 122.711 414.069 122.579 420.837C122.447 427.605 117.772 433.236 112.372 433.13Z" fill="#FF9C72"/>
<path d="M265.111 384.396L237.112 332.251L148.806 327.994L117.013 382.255L114.113 430.866C112.536 455.021 137.325 484.809 171.735 491.899C173.896 492.344 175.358 494.732 176.976 497.693C177.652 497.933 178.264 498.324 178.767 498.836C178.943 499.013 179.127 499.181 179.319 499.34C179.778 499.657 180.239 499.974 180.705 500.281C181.715 500.944 182.678 501.676 183.586 502.473C184.436 503.252 185.215 504.106 185.912 505.025C186.154 505.134 186.404 505.22 186.661 505.284L187 505.34L187.271 505.368C187.723 505.392 188.164 505.424 188.618 505.429C189.612 505.429 190.609 505.395 191.602 505.347C192.268 505.313 192.93 505.253 193.595 505.208C193.772 505.008 193.969 504.828 194.183 504.67C194.631 504.454 195.054 504.19 195.444 503.882C195.965 503.467 196.481 503.047 197.012 502.643C197.859 502.033 198.798 501.562 199.794 501.249C199.977 501.213 200.161 501.188 200.347 501.174C203.213 497.208 205.957 493.455 208.51 493.037C246.069 486.922 265.452 450.347 264.151 432.731L265.111 384.396Z" fill="#FFD19E"/>
<path d="M227.743 484.325C211.811 489.218 194.131 490.315 177.67 488.07C163.447 486.13 148.662 481.588 136.096 474.219C145.721 482.538 157.927 489.069 171.73 491.911C174.352 492.452 175.965 495.868 178.069 499.707C178.76 500.135 179.411 500.627 180.107 501.054C181.022 501.613 181.975 502.11 182.899 502.655C183.824 503.2 184.69 503.818 185.567 504.439C185.972 504.727 186.378 505.023 186.767 505.318L186.971 505.352L187.242 505.381C187.694 505.405 188.798 506.6 189.25 506.605C190.246 506.605 189.713 506.125 190.707 506.077C192.697 505.978 195.55 505.092 197.538 504.944C201.417 499.952 205.112 493.599 208.49 493.049C219.775 491.213 229.378 486.593 237.328 480.594C234.226 482.063 231.023 483.31 227.743 484.325V484.325Z" fill="#FF9C72"/>
<path d="M204.411 418.931C204.775 418.981 205.125 419.106 205.438 419.298C205.752 419.489 206.022 419.743 206.233 420.044C206.444 420.345 206.591 420.686 206.664 421.046C206.737 421.406 206.735 421.777 206.659 422.136C204.644 431.74 201.319 443.97 187.382 443.872C174.071 443.187 170.556 430.342 168.974 421.373C168.912 421.011 168.925 420.641 169.011 420.284C169.098 419.928 169.257 419.593 169.479 419.3C169.7 419.007 169.979 418.763 170.299 418.583C170.618 418.403 170.971 418.29 171.336 418.252C182.7 417.099 193.698 417.495 204.411 418.931Z" fill="#FB5C82"/>
<path d="M203.742 432.359C201.117 438.683 196.524 443.946 187.372 443.867C178.916 443.444 174.431 438.105 171.877 431.958C173.931 429.779 176.416 428.049 179.174 426.879C181.931 425.71 184.902 425.125 187.897 425.163C190.892 425.201 193.847 425.86 196.575 427.098C199.302 428.337 201.742 430.129 203.742 432.359V432.359Z" fill="#FF3867"/>
<path d="M91.703 502.447C97.0402 513.121 98.5552 528.165 114.651 528.597C132.639 529.077 147.93 517.529 164.607 511.997V491.669C148.081 495.369 140.449 501.645 122.653 501.371C106.399 501.131 108.248 495.501 100.771 485.362L91.703 502.447Z" fill="#E5E6E7"/>
<path d="M89.8231 501.035C92.8867 500.728 96.3055 499.849 98.548 497.736C99.8925 496.471 101.189 495.095 102.022 493.46C102.855 491.825 103.223 489.859 102.651 488.104C102.285 487.068 101.685 486.131 100.898 485.364C98.0366 482.44 93.4557 481.463 89.5494 482.644C85.744 483.789 80.0634 488.284 79.9002 492.656C79.7057 497.892 84.8796 501.532 89.8231 501.035Z" fill="#FFBC72"/>
<path d="M88.0561 481.88C86.9625 478.691 86.1503 475.411 85.6287 472.08C85.3886 470.488 85.2206 468.755 86.0369 467.365C87.2806 465.252 90.08 464.188 92.2792 465.271C95.6405 466.925 97.6741 471.273 99.2635 474.442C100.67 477.256 101.98 480.117 103.191 483.026C104.226 485.503 105.741 487.621 104.596 490.358C103.662 492.588 101.818 495.105 99.5348 495.907C97.4436 496.641 95.1747 497.016 92.9971 496.596C89.8327 495.983 87.0429 493.556 86.1738 490.452C85.3046 487.347 86.5099 483.729 89.1653 481.9C91.5662 480.255 94.6706 480.154 97.5685 480.37" fill="#FFBC72"/>
<path d="M84.2914 477.184C82.0994 478.572 81.1558 480.786 82.6756 483.453C81.696 482.096 79.4008 483.794 78.6829 484.653C78.4112 484.961 78.2126 485.326 78.102 485.721C77.9914 486.116 77.9717 486.531 78.0442 486.934C78.1211 487.414 78.8678 489.318 79.6001 489.148C78.8054 489.333 78.2291 490.087 78.0635 490.886C77.8978 491.686 78.0779 492.519 78.3564 493.287C79.48 496.351 82.5484 498.783 85.7992 498.569C89.547 498.312 92.2528 494.968 94.272 491.796C95.7126 489.556 97.0739 487.126 97.1531 484.469C97.3116 478.718 88.1857 474.721 84.2914 477.184Z" fill="#FFBC72"/>
<path d="M99.266 478.562C97.6814 477.953 95.8374 478.262 94.3105 478.915C92.7298 479.596 91.3561 480.681 90.3274 482.06C89.2854 483.465 88.6947 485.297 89.1773 487.028C89.6575 488.709 91.0285 489.803 92.7451 490.029C93.7107 490.135 94.6876 490.061 95.6262 489.811C96.6226 489.571 97.5925 489.21 98.3296 488.471C98.5289 488.269 98.3296 487.835 98.0367 487.95C95.7822 488.797 91.4558 490.274 90.3898 486.966C89.451 484.051 92.2361 481.271 94.6394 480.145C96.116 479.451 97.6862 479.213 99.2732 478.925C99.47 478.889 99.4364 478.625 99.2732 478.562H99.266Z" fill="#FB7B44"/>
<path d="M92.1616 480.325C91.7246 479.624 91.29 478.867 90.6802 478.301C90.0598 477.707 89.345 477.22 88.565 476.86C87.8323 476.524 87.0264 476.38 86.2227 476.44C85.4191 476.501 84.6438 476.764 83.9697 477.206C83.3292 477.639 82.8086 478.226 82.4564 478.914C82.1042 479.602 81.9318 480.368 81.9553 481.141C82.0177 482.781 83.0045 484.262 84.1665 485.362C84.8162 485.998 85.6031 486.477 86.4666 486.761C87.3165 487.026 88.3609 487.15 89.1076 486.603C89.1606 486.57 89.2017 486.52 89.225 486.462C89.2482 486.404 89.2524 486.34 89.2369 486.28C89.2214 486.219 89.187 486.165 89.1388 486.125C89.0905 486.085 89.0308 486.062 88.9683 486.058C88.2913 486.029 87.6191 486.128 86.9516 485.957C86.2706 485.775 85.6394 485.442 85.1053 484.982C84.1233 484.159 83.2398 482.97 83.0093 481.688C82.9048 481.057 82.9697 480.409 83.1975 479.811C83.4252 479.213 83.8077 478.686 84.3058 478.284C85.3742 477.434 86.7067 477.359 87.9696 477.804C88.7298 478.082 89.431 478.501 90.0368 479.038C90.637 479.554 91.278 480.02 91.8735 480.543C92.0175 480.668 92.272 480.514 92.1568 480.332L92.1616 480.325Z" fill="#FB7B44"/>
<path d="M82.9229 483.415C81.504 482.622 79.8161 483.124 78.8654 484.406C77.8354 485.791 78.0299 487.587 78.9518 488.968C79.8738 490.348 81.1895 491.693 82.7933 492.192C83.5496 492.425 84.3545 492.452 85.1247 492.27C85.895 492.089 86.6028 491.704 87.1749 491.158C87.7398 490.613 88.1272 489.911 88.2865 489.143C88.4402 488.365 88.4666 487.222 87.924 486.584C87.8328 486.476 87.6839 486.567 87.6647 486.685C87.6335 487.023 87.7199 487.357 87.7151 487.695C87.7104 488.041 87.6529 488.385 87.5447 488.713C87.3612 489.233 87.0828 489.714 86.7236 490.132C86.3443 490.588 85.8528 490.937 85.2975 491.145C84.7421 491.353 84.1422 491.413 83.5568 491.318C82.2459 491.105 81.2255 490.118 80.3948 489.158C79.564 488.197 78.8654 486.925 79.3864 485.599C79.9074 484.274 81.4536 483.659 82.8269 483.789C82.8692 483.788 82.9101 483.774 82.9436 483.748C82.9771 483.722 83.0015 483.686 83.0133 483.645C83.025 483.605 83.0236 483.561 83.0091 483.522C82.9945 483.482 82.9677 483.448 82.9325 483.424L82.9229 483.415Z" fill="#FB7B44"/>
<path d="M80.1571 489.366C78.7957 488.98 78.1475 490.48 78.1331 491.594C78.1139 492.987 78.8678 494.255 79.7513 495.28C80.6349 496.305 81.8449 497.129 83.2879 497.021C84.5075 496.932 85.5927 496.391 86.2049 495.306C86.5076 494.764 86.7071 494.171 86.7932 493.556C86.8724 493.023 86.966 492.272 86.6827 491.787C86.6587 491.748 86.6244 491.718 86.5837 491.698C86.543 491.678 86.4977 491.671 86.4528 491.676C86.4079 491.681 86.3653 491.698 86.33 491.726C86.2946 491.754 86.268 491.792 86.253 491.835C86.2029 492.088 86.178 492.347 86.1785 492.605C86.15 492.887 86.0945 493.165 86.0129 493.436C85.8701 493.939 85.6312 494.409 85.3094 494.821C84.9585 495.273 84.4772 495.605 83.9308 495.773C83.3845 495.942 82.7995 495.938 82.2555 495.762C81.0886 495.369 80.0946 494.13 79.5352 493.069C79.2266 492.501 79.057 491.868 79.0406 491.222C79.0406 490.531 79.396 489.743 80.1523 489.638C80.2963 489.616 80.2843 489.398 80.1523 489.366H80.1571Z" fill="#FB7B44"/>
<path d="M86.7451 476.69C86.3345 473.384 84.0345 467.674 88.0656 465.725C91.5589 464.044 94.7354 466.894 96.2815 469.775C98.2215 473.376 99.8829 477.17 101.669 480.853C103.395 484.399 105.828 488.447 103.374 492.267C103.342 492.323 103.332 492.389 103.345 492.453C103.357 492.516 103.392 492.573 103.443 492.614C103.493 492.654 103.557 492.675 103.622 492.673C103.686 492.671 103.748 492.646 103.796 492.603C107.172 489.35 104.313 484.277 102.687 480.898C101.516 478.467 100.337 476.039 99.153 473.614C98.1518 471.547 97.2731 469.319 95.8806 467.475C93.8758 464.82 90.0392 463.305 87.0236 465.288C83.2086 467.801 85.1341 473.41 86.4714 476.759C86.4829 476.793 86.5067 476.821 86.538 476.838C86.5693 476.855 86.6059 476.86 86.6404 476.851C86.6749 476.842 86.7049 476.821 86.7243 476.791C86.7437 476.761 86.7511 476.725 86.7451 476.69V476.69Z" fill="#FB7B44"/>
<path d="M80.2771 494.934C80.892 496.628 81.9527 498.124 83.3472 499.265C84.7417 500.406 86.4183 501.149 88.2001 501.417C92.2816 502.024 96.3632 500.091 98.7233 496.749C98.8985 496.509 98.548 496.293 98.3463 496.449C96.9058 497.549 95.6525 498.742 93.9911 499.52C92.2804 500.311 90.3856 500.619 88.5122 500.411C85.1245 500.026 82.1666 497.791 80.5892 494.819C80.5028 494.653 80.2123 494.759 80.2795 494.944L80.2771 494.934Z" fill="#FB7B44"/>
<path d="M261.776 557.867L242.756 562.623C239.373 551.716 235.974 540.988 232.295 533.14C227.7 522.982 221.808 513.918 214.214 506.286L214.517 492.648L227.539 498.19C234.463 504.864 242.113 512.782 246.084 520.777C253.611 534.439 258.088 546.655 261.776 557.867Z" fill="#E5E6E7"/>
<path d="M229.645 562.203L151.704 561.348L151.978 547.238C154.821 526.621 158.537 509.289 164.29 491.686L165.831 491.093L179.478 508.06L191.226 544.362L201.189 506.725L201.326 506.142L213.931 491.496L214.682 491.357C214.752 491.496 214.075 492.396 214.145 492.533C214.298 492.958 215.163 492.584 215.316 493.013C222.279 512.358 226.514 530.321 228.761 546.811L229.645 562.203Z" fill="#00EF7E"/>
<path d="M166.122 490.855L164.612 512C147.932 517.522 132.624 529.087 114.646 528.609C101.29 528.232 97.9671 517.82 94.1664 508.202C93.4483 506.238 92.6252 504.315 91.7007 502.439L93.5158 498.98C97.3861 496.24 102.658 492.132 104.406 490.932C105.708 493.193 106.735 495.109 108.07 496.651C110.569 499.63 114.132 501.241 122.658 501.378C140.185 501.647 147.844 495.534 163.889 491.815C164.127 491.767 165.87 490.91 166.122 490.855Z" fill="#00EF7E"/>
<path d="M261.776 557.867L242.756 562.623C239.373 551.716 235.974 540.988 232.295 533.14C227.7 522.982 221.808 513.918 214.214 506.286L214.517 492.648L227.539 498.19C234.463 504.864 242.113 512.782 246.084 520.777C253.611 534.439 258.088 546.655 261.776 557.867Z" fill="#00EF7E"/>
<path d="M189.595 506.792L188.546 506.355L177.247 502.751L172.712 506.927L164.897 490.166L172.206 492.01L173.709 492.761L189.905 506.555L189.595 506.792Z" fill="#FAF5F2"/>
<path d="M214.848 491.724L207.557 508.24L200.397 504.78L190.431 506.449L189.763 506.977L189.3 506.737L206.423 493.052L213.924 491.477L214.675 491.338C214.747 491.486 214.781 491.587 214.848 491.724Z" fill="#FAF5F2"/>
<path d="M109.508 495.594C109.028 495.938 108.548 496.315 108.068 496.656C103.103 500.389 98.8554 504.19 94.164 508.197C93.6502 508.677 93.1364 509.121 92.6226 509.568C91.7655 507.239 89.0597 501.724 89.4366 501.587C90.0873 501.383 91.6286 500.355 93.5181 498.984C97.3884 496.245 102.661 492.137 104.409 490.937C104.591 490.804 104.785 490.69 104.99 490.596C105.607 491.109 107.626 494.43 109.508 495.594Z" fill="#03A056"/>
<path d="M164.766 406.818C164.89 400.539 160.984 395.371 156.041 395.273C151.099 395.176 146.992 400.186 146.868 406.465C146.744 412.744 150.65 417.913 155.593 418.01C160.535 418.108 164.642 413.097 164.766 406.818Z" fill="#3E1E08"/>
<path d="M153.207 405.2C153.181 406.468 152.271 407.479 151.174 407.457C150.076 407.435 149.207 406.389 149.234 405.121C149.26 403.853 150.168 402.84 151.265 402.862C152.362 402.883 153.231 403.93 153.207 405.2Z" fill="white"/>
<path d="M228.894 406.549C229.008 400.788 225.423 396.045 220.888 395.955C216.352 395.866 212.584 400.464 212.47 406.226C212.356 411.987 215.941 416.73 220.476 416.82C225.012 416.909 228.78 412.311 228.894 406.549Z" fill="#3E1E08"/>
<path d="M227.386 405.246C227.364 406.41 226.528 407.337 225.52 407.318C224.512 407.299 223.717 406.338 223.739 405.174C223.76 404.009 224.598 403.08 225.604 403.102C226.61 403.123 227.41 404.081 227.386 405.246Z" fill="white"/>
<path d="M194.743 410.953C194.702 413.029 191.922 414.657 188.534 414.592C185.146 414.528 182.436 412.777 182.474 410.71C182.513 408.643 185.295 407.015 188.678 407.073C192.061 407.13 194.784 408.876 194.743 410.953Z" fill="#FB7B44"/>
<path d="M200.579 565.756H174.385V580.56H200.579V565.756Z" fill="#3C1518"/>
<path d="M192.861 511.798L187.115 511.82L185.439 505.493L188.673 506.413L189.624 506.941L190.611 506.413L193.737 505.849L192.861 511.798Z" fill="#047C94"/>
<path d="M177.8 632.686H175.159L174.784 631.863L172.009 632.686L161.798 632.756C160.722 629.099 161.01 627.306 166.758 625.553C166.96 625.493 168.948 625.436 169.8 626.074C170.179 626.36 169.737 627.654 169.833 627.654L177.334 626.679L177.634 625.779L178.909 626.979L177.8 632.686Z" fill="#FF3867"/>
<path d="M203.285 632.686H205.926L206.301 631.863L209.076 632.686L219.287 632.756C220.363 629.099 220.075 627.306 214.327 625.553C214.125 625.493 212.137 625.436 211.285 626.074C210.906 626.36 211.345 627.654 211.252 627.654L203.751 626.679L203.451 625.779L202.176 626.979L203.285 632.686Z" fill="#FF3867"/>
<path d="M255.152 346.959C227.21 348.073 188.604 338.964 147.483 327.44C141.051 327.44 139.299 330.409 139.299 323.977C139.299 320.888 140.526 317.925 142.711 315.74C144.895 313.556 147.858 312.328 150.948 312.328H239.726C241.256 312.328 242.771 312.63 244.184 313.215C245.597 313.8 246.881 314.659 247.963 315.74C249.044 316.822 249.902 318.106 250.487 319.52C251.072 320.933 251.373 322.448 251.373 323.977V323.977C251.373 330.409 261.584 346.959 255.152 346.959Z" fill="#3C1518"/>
<path d="M244.204 344.62C240.418 337.936 234.259 339.607 227.157 338.995C208.19 337.358 190.424 331.929 171.725 329.353C164.374 328.342 156.84 326.064 149.315 324.791C149.01 325.752 148.713 326.724 148.403 327.687C185.377 338.028 218.843 346.414 245.704 347.048C245.162 346.253 244.667 345.442 244.204 344.62Z" fill="#2D1607"/>
<path d="M234.677 392.653C228.54 388.42 220.665 389.008 213.609 392.691L213.929 390.197C213.98 389.786 214.167 389.404 214.461 389.112C220.022 383.726 227.314 384.512 232.773 387.263C233.002 387.382 233.202 387.549 233.359 387.753C233.516 387.957 233.627 388.193 233.683 388.444L234.677 392.653Z" fill="#3E1E08"/>
<path d="M145.313 391.169C151.45 386.934 159.325 387.525 166.381 391.205L166.062 388.713C166.011 388.302 165.823 387.919 165.529 387.628C159.968 382.24 152.676 383.025 147.217 385.779C146.988 385.897 146.788 386.064 146.631 386.268C146.474 386.471 146.363 386.707 146.307 386.958L145.313 391.169Z" fill="#3E1E08"/>
<path d="M164.026 421.858H163.694L137.765 421.346C133.417 421.256 129.284 419.445 126.271 416.31C123.258 413.176 121.611 408.974 121.693 404.626L121.887 394.768C122.067 385.729 129.664 378.533 138.602 378.701L164.532 379.213C168.877 379.305 173.009 381.116 176.021 384.249C179.032 387.383 180.679 391.582 180.599 395.928L180.405 405.788C180.314 410.075 178.549 414.156 175.488 417.159C172.428 420.162 168.314 421.849 164.026 421.858V421.858ZM138.276 382.123C134.882 382.127 131.625 383.46 129.202 385.836C126.779 388.212 125.382 391.442 125.311 394.835L125.114 404.694C125.051 408.131 126.354 411.454 128.736 413.933C131.119 416.412 134.387 417.845 137.825 417.918L163.754 418.429C170.854 418.669 176.837 412.871 176.976 405.721L177.173 395.861C177.237 392.423 175.934 389.1 173.552 386.622C171.169 384.143 167.9 382.711 164.463 382.639L138.533 382.125L138.276 382.123Z" fill="#00EF7E"/>
<path d="M239.244 423.341H238.912L212.983 422.83C208.637 422.739 204.505 420.928 201.494 417.794C198.482 414.661 196.835 410.461 196.916 406.115L197.11 396.257C197.29 387.22 204.911 380.089 213.825 380.188L239.755 380.701C244.099 380.793 248.23 382.604 251.242 385.736C254.253 388.869 255.901 393.067 255.822 397.412L255.628 407.27C255.537 411.558 253.772 415.64 250.71 418.644C247.649 421.648 243.533 423.334 239.244 423.341V423.341ZM213.499 383.606C210.103 383.611 206.845 384.946 204.421 387.325C201.998 389.703 200.602 392.936 200.534 396.331L200.337 406.189C200.274 409.627 201.576 412.95 203.959 415.428C206.342 417.907 209.61 419.34 213.047 419.414L238.977 419.925C242.415 419.99 245.739 418.688 248.217 416.305C250.696 413.922 252.128 410.652 252.199 407.215L252.396 397.356C252.46 393.919 251.157 390.596 248.774 388.118C246.392 385.639 243.123 384.207 239.685 384.135L213.756 383.621L213.499 383.606Z" fill="#00EF7E"/>
<path d="M179.452 398.793L179.385 402.218L198.391 402.593L198.459 399.168L179.452 398.793Z" fill="#00EF7E"/>
<path d="M128.094 391.537C127.373 396.523 126.936 402.014 128.334 406.922C128.761 408.398 131.085 407.812 130.658 406.324C129.306 401.628 129.786 396.346 130.478 391.58C130.571 390.936 129.89 390.379 129.301 390.36C128.581 390.348 128.175 390.893 128.082 391.537H128.094Z" fill="white"/>
<path d="M249.517 410.581C250.238 405.594 250.674 400.101 249.265 395.196C248.84 393.717 246.514 394.305 246.943 395.793C248.293 400.487 247.813 405.769 247.121 410.537C247.027 411.178 247.709 411.738 248.298 411.757C249.018 411.757 249.424 411.224 249.517 410.581Z" fill="white"/>
<path d="M93 496L78 8" stroke="#3C1518" stroke-width="2" stroke-linecap="round"/>
<g filter="url(#filter0_i_73_29)">
<circle cx="95" cy="-53" r="204" fill="#FFD128"/>
</g>
<defs>
<filter id="filter0_i_73_29" x="-113" y="-267" width="412" height="418" filterUnits="userSpaceOnUse" color-interpolation-filters="sRGB">
<feFlood flood-opacity="0" result="BackgroundImageFix"/>
<feBlend mode="normal" in="SourceGraphic" in2="BackgroundImageFix" result="shape"/>
<feColorMatrix in="SourceAlpha" type="matrix" values="0 0 0 0 0 0 0 0 0 0 0 0 0 0 0 0 0 0 127 0" result="hardAlpha"/>
<feOffset dx="-4" dy="-10"/>
<feGaussianBlur stdDeviation="33"/>
<feComposite in2="hardAlpha" operator="arithmetic" k2="-1" k3="1"/>
<feColorMatrix type="matrix" values="0 0 0 0 0 0 0 0 0 0 0 0 0 0 0 0 0 0 0.09 0"/>
<feBlend mode="normal" in2="shape" result="effect1_innerShadow_73_29"/>
</filter>
</defs>
</svg>
